# xmcd CD database file
#
# Track frame offsets:
#	150
#	17516
#	43653
#	64815
#	85966
#	103074
#	119834
#	139454
#	165250
#	190015
#	215053
#	236474
#	253703
#	275895
#	297137
#
# Disc length: 4280 seconds
#
# Revision: 5
# Processed by: cddbd v1.5.2PL0 Copyright (c) Steve Scherf et al.
# Submitted via: CDex 1.70beta3
#
DISCID=e410b60f
DTITLE=西野カナ - Love Collection -mint-
DYEAR=2013
DGENRE=JPop
TTITLE0=Believe
TTITLE1=私たち
TTITLE2=会いたくて 会いたくて
TTITLE3=if
TTITLE4=Distance
TTITLE5=glowly days
TTITLE6=MAKE UP
TTITLE7=遠くても feat.WISE
TTITLE8=Dear…
TTITLE9=たとえ どんなに…
TTITLE10=Be Strong
TTITLE11=Summer Girl feat.MINMI
TTITLE12=Sweet Dreams
TTITLE13=HAPPY HAPPY
TTITLE14=Always
EXTD=YEAR: 2013
EXTT0=
EXTT1=
EXTT2=
EXTT3=
EXTT4=
EXTT5=
EXTT6=
EXTT7=
EXTT8=
EXTT9=
EXTT10=
EXTT11=
EXTT12=
EXTT13=
EXTT14=
PLAYORDER=
